<?xml version="1.0" encoding="UTF-8" standalone="no"?>
<!-- Created with Inkscape (http://www.inkscape.org/) -->

<svg
   xmlns:dc="http://purl.org/dc/elements/1.1/"
   xmlns:cc="http://creativecommons.org/ns#"
   xmlns:rdf="http://www.w3.org/1999/02/22-rdf-syntax-ns#"
   xmlns:svg="http://www.w3.org/2000/svg"
   xmlns="http://www.w3.org/2000/svg"
   xmlns:sodipodi="http://sodipodi.sourceforge.net/DTD/sodipodi-0.dtd"
   xmlns:inkscape="http://www.inkscape.org/namespaces/inkscape"
   width="375"
   height="375"
   id="svg2"
   sodipodi:version="0.32"
   inkscape:version="0.48.4 r9939"
   version="1.0"
   sodipodi:docname="accessibility.svg">
  <defs
     id="defs4" />
  <sodipodi:namedview
     id="base"
     pagecolor="#ffffff"
     bordercolor="#666666"
     borderopacity="1.0"
     gridtolerance="10000"
     guidetolerance="10"
     objecttolerance="10"
     inkscape:pageopacity="0.0"
     inkscape:pageshadow="2"
     inkscape:zoom="1.2103912"
     inkscape:cx="116.33119"
     inkscape:cy="181.68116"
     inkscape:document-units="px"
     inkscape:current-layer="layer1"
     width="451px"
     height="451px"
     inkscape:window-width="1280"
     inkscape:window-height="968"
     inkscape:window-x="-4"
     inkscape:window-y="-4"
     showgrid="false"
     fit-margin-top="0"
     fit-margin-left="0"
     fit-margin-right="0"
     fit-margin-bottom="0"
     inkscape:window-maximized="0" />
  <metadata
     id="metadata7">
    <rdf:RDF>
      <cc:Work
         rdf:about="">
        <dc:format>image/svg+xml</dc:format>
        <dc:type
           rdf:resource="http://purl.org/dc/dcmitype/StillImage" />
      </cc:Work>
    </rdf:RDF>
  </metadata>
  <g
     inkscape:label="Layer 1"
     inkscape:groupmode="layer"
     id="layer1"
     transform="translate(-69.730769,-38.000002)">
    <path
       style="fill:#ffffff;fill-opacity:1"
       d="m 208.35558,412.82907 c -10.41667,-0.9223 -19.78961,-2.8684 -29.0078,-6.0229 -42.14695,-14.4232 -73.43351,-51.83941 -80.726912,-96.54291 -0.426471,-2.614 -0.934867,-6.2329 -1.129784,-8.0422 -0.476624,-4.4242 -0.474669,-20.0007 0.0031,-24.39721 1.585138,-14.5879 5.396586,-28.1575 11.549566,-41.1189 11.6591,-24.5602 30.94926,-44.6283 54.55846,-56.75861 l 3.4107,-1.7524 0.15651,1.4317 c 0.16406,1.5007 2.55369,33.75821 2.55369,34.47201 0,0.2264 -0.99256,1.088 -2.20566,1.9148 -5.13855,3.5021 -11.33767,9.0742 -15.54937,13.9764 -11.77103,13.7011 -18.81591,29.2695 -21.58376,47.698 -0.51053,3.39911 -0.59943,5.12621 -0.61375,11.92441 -0.0172,8.1709 0.1904,10.9925 1.22039,16.5847 3.37897,18.3459 11.50929,34.0987 24.41061,47.2965 4.48359,4.5866 8.25041,7.7367 13.59512,11.3692 20.59883,14.00011 46.12488,18.28331 70.16074,11.77261 5.85678,-1.5864 10.47062,-3.4448 17.32176,-6.9767 18.34007,-9.45491 33.59773,-26.49391 41.36249,-46.19171 2.31289,-5.8674 4.3421,-13.2941 5.21184,-19.0747 0.25895,-1.7212 0.53301,-3.1282 0.609,-3.1265 0.076,0.002 4.85171,9.901 10.61271,21.9986 l 10.47457,21.9956 -1.35639,2.5914 c -14.07606,26.89281 -38.49378,48.14041 -67.04791,58.34331 -8.91457,3.1853 -16.68845,5.0107 -26.60161,6.2464 -4.06002,0.506 -17.33889,0.7476 -21.38827,0.3891 z m 144.31322,-40.8857 c -0.27807,-0.6549 -11.32326,-27.18821 -24.54483,-58.96281 l -24.03921,-57.77211 -59.82865,0 c -32.90574,0 -59.83954,-0.0308 -59.85289,-0.0685 -0.0133,-0.0377 -2.65014,-37.754 -5.85954,-83.81411 l -5.83528,-83.745496 -0.93882,-2.0966 c -1.88891,-4.218401 -2.82978,-8.250001 -3.02921,-12.980302 -0.68835,-16.326402 10.6437,-30.837603 26.57511,-34.030404 3.42094,-0.6856 8.77105,-0.6189 12.37172,0.1543 9.73734,2.090901 17.91202,8.479401 22.41058,17.513702 2.51821,5.057301 3.58216,9.542901 3.5884,15.128802 0.0119,10.654201 -4.77846,20.356102 -13.29971,26.935803 -3.90258,3.013495 -10.17921,5.679295 -14.42071,6.124895 l -1.70838,0.1794 0.12134,1.4038 c 0.146,1.689 3.57583,64.5565 3.57583,65.5436 l 0,0.6909 41.84077,0 41.84076,0 0,15.6252 0,15.62521 -40.27589,0 -40.27586,0 0.15589,1.9874 c 0.0857,1.0931 0.42865,5.9073 0.76199,10.6984 l 0.60608,8.7109 11.10763,-0.1505 c 25.04638,-0.3394 100.07867,-0.7168 100.26704,-0.5044 0.11155,0.1259 10.83523,25.423 23.83041,56.21601 12.99519,30.793 23.72281,55.9886 23.83913,55.9903 0.11634,0.002 8.22386,-2.9609 18.01667,-6.5836 9.79281,-3.6226 17.86755,-6.5226 17.94382,-6.4443 0.35366,0.3625 9.85894,23.8792 9.71213,24.0283 -0.16501,0.1676 -62.8498,25.41641 -63.70638,25.66041 -0.32021,0.0911 -0.58551,-0.2061 -0.94994,-1.0642 z"
       id="path1938"
       inkscape:connector-curvature="0" />
  </g>
</svg>
