<?xml version="1.0" encoding="UTF-8" standalone="no"?>
<!-- Created with Inkscape (http://www.inkscape.org/) -->

<svg
   xmlns:dc="http://purl.org/dc/elements/1.1/"
   xmlns:cc="http://creativecommons.org/ns#"
   xmlns:rdf="http://www.w3.org/1999/02/22-rdf-syntax-ns#"
   xmlns:svg="http://www.w3.org/2000/svg"
   xmlns="http://www.w3.org/2000/svg"
   xmlns:sodipodi="http://sodipodi.sourceforge.net/DTD/sodipodi-0.dtd"
   xmlns:inkscape="http://www.inkscape.org/namespaces/inkscape"
   id="svg4129"
   version="1.1"
   inkscape:version="0.48.4 r9939"
   width="426.49985"
   height="431.08759"
   sodipodi:docname="aumentarFonte.svg">
  <metadata
     id="metadata4135">
    <rdf:RDF>
      <cc:Work
         rdf:about="">
        <dc:format>image/svg+xml</dc:format>
        <dc:type
           rdf:resource="http://purl.org/dc/dcmitype/StillImage" />
        <dc:title></dc:title>
      </cc:Work>
    </rdf:RDF>
  </metadata>
  <defs
     id="defs4133" />
  <sodipodi:namedview
     pagecolor="#ffffff"
     bordercolor="#666666"
     borderopacity="1"
     objecttolerance="10"
     gridtolerance="10"
     guidetolerance="10"
     inkscape:pageopacity="0"
     inkscape:pageshadow="2"
     inkscape:window-width="1280"
     inkscape:window-height="962"
     id="namedview4131"
     showgrid="false"
     fit-margin-top="0"
     fit-margin-left="0"
     fit-margin-right="0"
     fit-margin-bottom="0"
     inkscape:zoom="1"
     inkscape:cx="37.68689"
     inkscape:cy="208.54529"
     inkscape:window-x="-8"
     inkscape:window-y="-8"
     inkscape:window-maximized="1"
     inkscape:current-layer="svg4129" />
  <path
     inkscape:connector-curvature="0"
     id="path4141"
     d="M 16.027133,430.60619 C 7.4343133,428.50027 1.0544633,421.44145 0.04568331,412.92391 -0.52345669,408.11842 3.3050433,396.21866 65.193683,210.43034 101.35765,101.86691 131.55359,11.845286 132.29576,10.382285 c 2.07288,-4.0861402 8.18822,-8.5918382 13.33798,-9.82724822 8.16966,-1.95986998 16.88378,1.37427702 21.85756,8.36301252 1.26521,1.7777637 30.44644,88.0862177 67.70953,200.2624707 49.00886,147.53552 65.48606,198.30864 65.48606,201.78984 0,5.79602 -2.78275,11.42296 -7.62168,15.41162 -8.54738,7.04547 -20.77565,6.07748 -28.04715,-2.22021 -3.47645,-3.96705 -5.17268,-8.41143 -18.32016,-48.00142 l -14.48899,-43.62958 -81.92627,0.25576 -81.926277,0.25576 -14.25561,42.75395 c -7.84059,23.51467 -15.23039,44.33115 -16.42177,46.25884 -3.9497,6.39076 -14.10378,10.40098 -21.65185,8.55111 z M 217.68689,289.79232 c 0,-1.43515 -66.25514,-199.755693 -67.0125,-200.587543 -0.41938,-0.46062 -15.72942,44.089383 -34.02231,99.000003 -18.292887,54.91063 -33.466657,100.40001 -33.719477,101.08751 -0.36488,0.99221 13.48321,1.25 67.147297,1.25 37.18385,0 67.60699,-0.33749 67.60699,-0.74997 z"
     style="fill:#000000"
     sodipodi:nodetypes="ssssssssssscccsssssssss" />
  <path
     sodipodi:type="arc"
     style="fill:#000000;fill-opacity:0;stroke:#000000;stroke-width:36.99968338;stroke-miterlimit:4;stroke-opacity:1;stroke-dasharray:none"
     id="path2982"
     sodipodi:cx="313.5"
     sodipodi:cy="101.58755"
     sodipodi:rx="59.5"
     sodipodi:ry="62.5"
     d="m 373,101.58755 a 59.5,62.5 0 1 1 -119,0 59.5,62.5 0 1 1 119,0 z"
     transform="matrix(1.0048198,0,0,0.96458842,33.489002,-8.9026244)" />
</svg>
