<?xml version="1.0" encoding="UTF-8" standalone="no"?>
<!-- Created with Inkscape (http://www.inkscape.org/) -->

<svg
   xmlns:dc="http://purl.org/dc/elements/1.1/"
   xmlns:cc="http://creativecommons.org/ns#"
   xmlns:rdf="http://www.w3.org/1999/02/22-rdf-syntax-ns#"
   xmlns:svg="http://www.w3.org/2000/svg"
   xmlns="http://www.w3.org/2000/svg"
   xmlns:sodipodi="http://sodipodi.sourceforge.net/DTD/sodipodi-0.dtd"
   xmlns:inkscape="http://www.inkscape.org/namespaces/inkscape"
   id="svg4129"
   version="1.1"
   inkscape:version="0.48.4 r9939"
   width="401.5791"
   height="432.7529"
   sodipodi:docname="fonteAumentarBlack.svg">
  <metadata
     id="metadata4135">
    <rdf:RDF>
      <cc:Work
         rdf:about="">
        <dc:format>image/svg+xml</dc:format>
        <dc:type
           rdf:resource="http://purl.org/dc/dcmitype/StillImage" />
        <dc:title></dc:title>
      </cc:Work>
    </rdf:RDF>
  </metadata>
  <defs
     id="defs4133" />
  <sodipodi:namedview
     pagecolor="#ffffff"
     bordercolor="#666666"
     borderopacity="1"
     objecttolerance="10"
     gridtolerance="10"
     guidetolerance="10"
     inkscape:pageopacity="0"
     inkscape:pageshadow="2"
     inkscape:window-width="1280"
     inkscape:window-height="962"
     id="namedview4131"
     showgrid="false"
     fit-margin-top="0"
     fit-margin-left="0"
     fit-margin-right="0"
     fit-margin-bottom="0"
     inkscape:zoom="1"
     inkscape:cx="196.68689"
     inkscape:cy="208.54528"
     inkscape:window-x="-8"
     inkscape:window-y="-8"
     inkscape:window-maximized="1"
     inkscape:current-layer="svg4129" />
  <path
     inkscape:connector-curvature="0"
     id="path4141"
     d="M 16.027133,432.27151 C 7.4343133,430.16559 1.0544633,423.10677 0.04568331,414.58923 -0.52345669,409.78374 3.3050433,397.88398 65.193683,212.09566 101.35765,103.53223 131.55359,13.51061 132.29576,12.047609 c 2.07288,-4.0861405 8.18822,-8.5918385 13.33798,-9.8272485 8.16966,-1.95987002 16.88378,1.374277 21.85756,8.3630125 1.26521,1.777764 30.44644,88.086218 67.70953,200.262467 49.00886,147.53552 65.48606,198.30864 65.48606,201.78984 0,5.79602 -2.78275,11.42296 -7.62168,15.41162 -8.54738,7.04547 -20.77565,6.07748 -28.04715,-2.22021 -3.47645,-3.96705 -5.17268,-8.41143 -18.32016,-48.00142 l -14.48899,-43.62958 -81.92627,0.25576 -81.926277,0.25576 -14.25561,42.75395 c -7.84059,23.51467 -15.23039,44.33115 -16.42177,46.25884 -3.9497,6.39076 -14.10378,10.40098 -21.65185,8.55111 z M 217.68689,291.45764 c 0,-1.43515 -66.25514,-199.755689 -67.0125,-200.587539 -0.41938,-0.46062 -15.72942,44.089379 -34.02231,98.999999 -18.292887,54.91063 -33.466657,100.40001 -33.719477,101.08751 -0.36488,0.99221 13.48321,1.25 67.147297,1.25 37.18385,0 67.60699,-0.33749 67.60699,-0.74997 z M 242.11615,80.314801 c -5.33525,-2.42322 -10.02023,-8.23368 -11.4524,-14.20365 -1.62485,-6.77313 0.59449,-14.138514 5.72976,-19.015549 2.08636,-1.98144 19.05591,-13.190093 37.71011,-24.908118 36.05851,-22.65090252 37.54451,-23.3353325 46.86724,-21.58637852 1.90206,0.35683 18.97541,10.45753752 38.80618,22.95800352 39.40749,24.840786 40.55742,25.833617 41.5979,35.914972 0.49665,4.81205 0.18844,6.46569 -2.06268,11.06681 -3.66361,7.48816 -8.822,10.9571 -17.07484,11.48261 -7.7163,0.49133 -6.2119,1.24081 -39.51541,-19.68614 C 328.16632,53.191 315.90489,45.819753 315.47439,45.956816 c -0.4305,0.137062 -12.94665,7.915587 -27.81367,17.285605 -14.86702,9.37003 -28.17239,17.47038 -29.56749,18.0008 -4.01026,1.5247 -11.53926,1.08719 -15.97708,-0.92842 z"
     style="fill:#ffffff" />
</svg>
