<?xml version="1.0" encoding="UTF-8" standalone="no"?>
<!-- Created with Inkscape (http://www.inkscape.org/) -->

<svg
   xmlns:dc="http://purl.org/dc/elements/1.1/"
   xmlns:cc="http://creativecommons.org/ns#"
   xmlns:rdf="http://www.w3.org/1999/02/22-rdf-syntax-ns#"
   xmlns:svg="http://www.w3.org/2000/svg"
   xmlns="http://www.w3.org/2000/svg"
   xmlns:sodipodi="http://sodipodi.sourceforge.net/DTD/sodipodi-0.dtd"
   xmlns:inkscape="http://www.inkscape.org/namespaces/inkscape"
   width="225.30762"
   height="35.65073"
   id="svg2"
   version="1.1"
   inkscape:version="0.48.4 r9939"
   sodipodi:docname="SysRadoc.svg">
  <defs
     id="defs4" />
  <sodipodi:namedview
     id="base"
     pagecolor="#ffffff"
     bordercolor="#666666"
     borderopacity="1.0"
     inkscape:pageopacity="0.0"
     inkscape:pageshadow="2"
     inkscape:zoom="2.6563682"
     inkscape:cx="120.03668"
     inkscape:cy="32.275439"
     inkscape:document-units="px"
     inkscape:current-layer="layer1"
     showgrid="false"
     showguides="true"
     inkscape:guide-bbox="true"
     fit-margin-top="0"
     fit-margin-left="0"
     fit-margin-right="0"
     fit-margin-bottom="0.7"
     inkscape:window-width="1366"
     inkscape:window-height="715"
     inkscape:window-x="0"
     inkscape:window-y="26"
     inkscape:window-maximized="1"
     inkscape:snap-bbox="true"
     inkscape:bbox-paths="true"
     inkscape:bbox-nodes="true"
     inkscape:snap-bbox-midpoints="true"
     inkscape:snap-bbox-edge-midpoints="true"
     inkscape:snap-page="true"
     inkscape:snap-global="true" />
  <metadata
     id="metadata7">
    <rdf:RDF>
      <cc:Work
         rdf:about="">
        <dc:format>image/svg+xml</dc:format>
        <dc:type
           rdf:resource="http://purl.org/dc/dcmitype/StillImage" />
        <dc:title></dc:title>
      </cc:Work>
    </rdf:RDF>
  </metadata>
  <g
     inkscape:label="Camada 1"
     inkscape:groupmode="layer"
     id="layer1"
     transform="translate(-82.718751,-326.1247)">
    <g
       id="g3818">
      <path
         inkscape:connector-curvature="0"
         id="path2987"
         d="m 135.4375,326.125 c -2.18962,4e-5 -3.97955,0.67493 -5.25,2.03125 l 0,0.0312 c -0.54204,0.5466 -0.98592,1.12106 -1.25,1.78125 -0.24748,0.6187 -0.4355,1.21024 -0.5625,1.75 l 0,0.0312 c -0.0938,0.5315 -0.15626,1.00905 -0.15625,1.4375 -1e-5,0.36004 -1e-5,0.56616 0,0.65625 -1e-5,2.06285 0.70957,3.98899 2.09375,5.65625 l 0.0312,0 c 0.62025,0.71332 1.28725,1.34853 2.03125,1.9375 l 0,0.0312 0.0312,0 c 0.75156,0.54115 1.53236,1.0853 2.34375,1.65625 0.8345,0.5961 1.63288,1.21796 2.4375,1.84375 l 0.0312,0 c 0.77654,0.57525 1.45891,1.2215 2.0625,1.96875 l 0,0.0312 c 0.62194,0.73506 1.1284,1.59068 1.5,2.5625 0.36158,0.91791 0.53123,2.01065 0.53125,3.3125 -2e-5,1.11446 -0.18209,2.02479 -0.53125,2.75 l 0,0.0312 c -0.33188,0.74669 -0.77819,1.32341 -1.34375,1.78125 -0.54923,0.43938 -1.18138,0.77697 -1.90625,1 -0.70667,0.19787 -1.42114,0.28126 -2.15625,0.28125 -0.59032,10e-6 -1.21477,-0.0747 -1.90625,-0.21875 -0.64282,-0.16069 -1.23881,-0.44247 -1.8125,-0.875 -0.53328,-0.45327 -1.00954,-1.08738 -1.40625,-1.9375 -0.35132,-0.81072 -0.53126,-1.91763 -0.53125,-3.3125 l 0,-0.5 -0.5,0 -0.9375,0 -0.5,0 0,0.5 c -10e-6,1.30763 0.18536,2.55595 0.5625,3.71875 0.41294,1.17534 1.02164,2.15157 1.84375,2.875 l 0.65625,-0.75 c -0.13805,-0.12148 -0.18727,-0.36103 -0.3125,-0.5 0.1385,0.1569 0.22421,0.39541 0.375,0.53125 -0.0199,-0.0165 -0.0427,-0.0145 -0.0625,-0.0312 l -0.625,0.75 c 0.83001,0.70233 1.70323,1.17622 2.65625,1.40625 l 0.0312,0 c 0.92409,0.18482 1.73526,0.28125 2.46875,0.28125 2.07089,0 3.8664,-0.56115 5.28125,-1.71875 1.73332,-1.44444 2.62498,-3.52138 2.625,-6.0625 -2e-5,-2.68076 -0.83966,-5.05741 -2.46875,-7.0625 -0.71241,-0.86724 -1.50629,-1.62991 -2.375,-2.3125 -0.84807,-0.66631 -1.71514,-1.33154 -2.59375,-1.9375 l 0,0.0312 c -0.74744,-0.53813 -1.47018,-1.08699 -2.1875,-1.625 -0.66554,-0.52082 -1.23256,-1.08378 -1.75,-1.6875 -0.50479,-0.62057 -0.94222,-1.26921 -1.25,-1.96875 l 0.0312,0 c -0.30043,-0.71005 -0.46876,-1.53428 -0.46875,-2.46875 0,0 -1e-5,-0.16998 0,-0.5 -1e-5,-0.28449 0.0396,-0.63551 0.125,-1.0625 0.0833,-0.44411 0.23688,-0.92162 0.4375,-1.4375 0.18618,-0.47875 0.46343,-0.93624 0.84375,-1.34375 0.85323,-0.93319 2.07811,-1.40621 3.8125,-1.40625 0.88161,4e-5 1.60363,0.13619 2.1875,0.375 0.59475,0.24335 1.07,0.57938 1.46875,1.03125 0.33875,0.39092 0.58633,0.8454 0.71875,1.375 0.17114,0.54203 0.28768,1.08914 0.34375,1.59375 0.0576,0.51882 0.0572,0.93815 0.0312,1.25 l 0,0.0312 c -1e-5,0.18002 0,0.31623 0,0.40625 0,0.09 0,0.125 0,0.125 l 0.5,0 0,0.5 0.96875,0 0.5,0 0,-0.5 c -2e-5,-0.0284 -2e-5,-0.23498 0,-0.625 l -0.0312,0 c 0.0302,-0.45289 0.0298,-0.9517 -0.0312,-1.53125 -0.064,-0.64019 -0.21699,-1.27586 -0.4375,-1.9375 l 0.0312,0 c -0.19874,-0.7286 -0.56939,-1.37695 -1.0625,-1.96875 -1.18572,-1.38327 -2.95893,-2.06246 -5.1875,-2.0625 z m -5.15625,3.59375 c -0.14394,0.23997 -0.33668,0.45949 -0.4375,0.71875 -0.2194,0.56418 -0.37204,1.10917 -0.46875,1.625 -0.0853,0.42649 -0.14741,0.77861 -0.15625,1.125 -1e-5,-0.343 0.043,-0.77634 0.125,-1.25 0.002,-0.0117 -0.002,-0.0195 0,-0.0312 0.10627,-0.44516 0.29181,-0.93719 0.5,-1.46875 0.0133,-0.0339 0.0176,-0.0596 0.0312,-0.0937 0.088,-0.21993 0.27607,-0.4166 0.40625,-0.625 z m -1.0625,4.125 c 0.004,0.98617 0.17571,1.87567 0.5,2.6875 -0.32514,-0.84776 -0.5,-1.7457 -0.5,-2.6875 z"
         style="font-size:45px;font-style:normal;font-variant:normal;font-weight:bold;font-stretch:normal;text-indent:0;text-align:start;text-decoration:none;line-height:125%;letter-spacing:0px;word-spacing:0px;text-transform:none;direction:ltr;block-progression:tb;writing-mode:lr-tb;text-anchor:start;baseline-shift:baseline;color:#000000;fill:#000000;fill-opacity:1;fill-rule:nonzero;stroke:none;stroke-width:1;marker:none;visibility:visible;display:inline;overflow:visible;enable-background:accumulate;font-family:basic title font;-inkscape-font-specification:basic title font Bold" />
      <path
         inkscape:connector-curvature="0"
         id="path2989"
         d="m 148.375,326.5625 0.25,0.6875 6.28125,15.84375 0,16.59375 0,0.5 0.5,0 0.5,0 0.46875,0 0.5,0 0,-0.5 0,-16.59375 6.28125,-15.84375 0.28125,-0.6875 -0.75,0 -1.03125,0 0,0.5 -0.46875,-0.1875 -5.28125,13.8125 -5.3125,-13.8125 -0.125,-0.3125 -0.34375,0 -1.03125,0 -0.71875,0 z"
         style="font-size:45px;font-style:normal;font-variant:normal;font-weight:bold;font-stretch:normal;text-indent:0;text-align:start;text-decoration:none;line-height:125%;letter-spacing:0px;word-spacing:0px;text-transform:none;direction:ltr;block-progression:tb;writing-mode:lr-tb;text-anchor:start;baseline-shift:baseline;color:#000000;fill:#000000;fill-opacity:1;fill-rule:nonzero;stroke:none;stroke-width:1;marker:none;visibility:visible;display:inline;overflow:visible;enable-background:accumulate;font-family:basic title font;-inkscape-font-specification:basic title font Bold" />
      <path
         inkscape:connector-curvature="0"
         id="path2991"
         d="m 176.5625,326.125 c -2.18967,4e-5 -3.97955,0.67486 -5.25,2.03125 l 0,0.0312 c -0.54204,0.5466 -0.98592,1.12106 -1.25,1.78125 -0.24747,0.6187 -0.43549,1.21025 -0.5625,1.75 l 0,0.0312 c -0.0938,0.53151 -0.125,1.00907 -0.125,1.4375 l 0,0.65625 c 0,2.06285 0.70958,3.98899 2.09375,5.65625 0.62025,0.71332 1.28725,1.34853 2.03125,1.9375 l 0.0312,0.0312 c 0.75156,0.54115 1.53236,1.0853 2.34375,1.65625 0.8345,0.5961 1.63288,1.21796 2.4375,1.84375 l 0.0312,0 c 0.77654,0.57524 1.45893,1.2215 2.0625,1.96875 l 0,0.0312 c 0.62194,0.73506 1.1284,1.59068 1.5,2.5625 0.36158,0.91791 0.56248,2.01065 0.5625,3.3125 -2e-5,1.11446 -0.21334,2.02479 -0.5625,2.75 l 0,0.0312 c -0.33188,0.74669 -0.77819,1.32341 -1.34375,1.78125 -0.54216,0.43373 -1.16183,0.77712 -1.875,1 -0.009,0.003 -0.0219,-0.003 -0.0312,0 -0.69693,0.19227 -1.40036,0.28126 -2.125,0.28125 -0.58092,10e-6 -1.22736,-0.0793 -1.90625,-0.21875 -0.009,-0.002 -0.0223,0.002 -0.0312,0 -0.6417,-0.16436 -1.23962,-0.43851 -1.8125,-0.875 -0.53328,-0.45327 -0.97829,-1.08738 -1.375,-1.9375 -0.35132,-0.81072 -0.5625,-1.91763 -0.5625,-3.3125 l 0,-0.5 -0.5,0 -0.9375,0 -0.5,0 0,0.5 c 0,1.30763 0.18537,2.55595 0.5625,3.71875 0.41295,1.17534 1.05289,2.15156 1.875,2.875 0.83001,0.70233 1.73448,1.17622 2.6875,1.40625 0.92409,0.18482 1.76651,0.28125 2.5,0.28125 2.0709,0 3.83516,-0.56115 5.25,-1.71875 1.73332,-1.44444 2.62498,-3.52138 2.625,-6.0625 -2e-5,-2.68076 -0.83966,-5.05741 -2.46875,-7.0625 -0.71241,-0.86724 -1.50628,-1.62991 -2.375,-2.3125 -0.83661,-0.65731 -1.69617,-1.30767 -2.5625,-1.90625 -0.0119,-0.009 -0.0194,-0.0227 -0.0312,-0.0312 -0.72825,-0.52465 -1.45663,-1.06921 -2.15625,-1.59375 -0.006,-0.005 -0.0251,0.005 -0.0312,0 -0.65801,-0.51676 -1.23734,-1.08936 -1.75,-1.6875 -0.50468,-0.62049 -0.91102,-1.26932 -1.21875,-1.96875 -0.30043,-0.71005 -0.46876,-1.53428 -0.46875,-2.46875 0,0 -1e-5,-0.16998 0,-0.5 -1e-5,-0.28449 0.0396,-0.63551 0.125,-1.0625 0.0833,-0.44411 0.23688,-0.92162 0.4375,-1.4375 0.18618,-0.47875 0.46343,-0.93624 0.84375,-1.34375 0.85323,-0.93319 2.07811,-1.40621 3.8125,-1.40625 0.88161,4e-5 1.60365,0.13619 2.1875,0.375 0.59476,0.24335 1.10126,0.57939 1.5,1.03125 0.33875,0.39092 0.55508,0.8454 0.6875,1.375 0.17114,0.54203 0.28768,1.08914 0.34375,1.59375 0.0576,0.51882 0.0885,0.93815 0.0625,1.25 l 0,0.0312 c -1e-5,0.18002 0,0.31623 0,0.40625 0,0.09 0,0.125 0,0.125 l 0.5,0 0,0.5 0.9375,0 0.5,0 0,-0.5 c -2e-5,-0.027 -2e-5,-0.24023 0,-0.59375 6.6e-4,-0.009 -6.2e-4,-0.022 0,-0.0312 0.0302,-0.4529 -0.001,-0.95169 -0.0625,-1.53125 -0.064,-0.64019 -0.18574,-1.27586 -0.40625,-1.9375 -0.19874,-0.7286 -0.56939,-1.37695 -1.0625,-1.96875 -1.18571,-1.38327 -2.95892,-2.06246 -5.1875,-2.0625 z m -5.15625,3.59375 c -0.14394,0.23997 -0.33668,0.45949 -0.4375,0.71875 -0.2194,0.56418 -0.37204,1.10917 -0.46875,1.625 0.009,-0.0571 -0.0104,-0.0972 0,-0.15625 0.10624,-0.44289 0.2619,-0.94057 0.46875,-1.46875 0.0133,-0.0339 0.0176,-0.0596 0.0312,-0.0937 0.088,-0.21993 0.27607,-0.4166 0.40625,-0.625 z m -0.8125,5.375 c 0.0806,0.48443 0.0769,1.00421 0.25,1.4375 -0.17392,-0.45347 -0.16979,-0.95834 -0.25,-1.4375 z m 1.03125,22.5 c 0.16917,0.19906 0.2807,0.48955 0.46875,0.65625 -0.0319,-0.0258 -0.0619,-0.0358 -0.0937,-0.0625 -0.16345,-0.14383 -0.22952,-0.42532 -0.375,-0.59375 z"
         style="font-size:45px;font-style:normal;font-variant:normal;font-weight:bold;font-stretch:normal;text-indent:0;text-align:start;text-decoration:none;line-height:125%;letter-spacing:0px;word-spacing:0px;text-transform:none;direction:ltr;block-progression:tb;writing-mode:lr-tb;text-anchor:start;baseline-shift:baseline;color:#000000;fill:#000000;fill-opacity:1;fill-rule:nonzero;stroke:none;stroke-width:1;marker:none;visibility:visible;display:inline;overflow:visible;enable-background:accumulate;font-family:basic title font;-inkscape-font-specification:basic title font Bold" />
      <path
         d="m 219.38575,360.00323 -8.48438,0 -10.75781,-15.62851 c -0.79689,0.033 -1.44532,0.0494 -1.94531,0.0494 -0.20314,2e-5 -0.42189,2e-5 -0.65625,0 -0.23439,-0.0164 -0.47657,-0.0328 -0.72656,-0.0494 l 0,9.71236 c -1e-5,2.10352 0.21874,3.40999 0.65625,3.91946 0.59374,0.72308 1.48436,1.08461 2.67187,1.08461 l 1.24219,0 0,0.91208 -13.61719,0 0,-0.91208 1.19531,0 c 1.34375,0 2.30469,-0.46014 2.88282,-1.38042 0.32812,-0.50943 0.49218,-1.71733 0.49218,-3.62365 l 0,-21.59397 c 0,-2.10348 -0.21875,-3.40996 -0.65625,-3.91943 -0.60937,-0.72306 -1.51562,-1.08462 -2.71875,-1.08465 l -1.19531,0 0,-0.91207 11.57813,0 c 3.37498,4e-5 5.85935,0.26299 7.45312,0.78881 1.60936,0.50951 2.96873,1.46265 4.07813,2.85948 1.12497,1.38047 1.68747,3.03205 1.6875,4.95479 -3e-5,2.05425 -0.64065,3.83731 -1.92188,5.3492 -1.26565,1.51191 -3.23439,2.5801 -5.90625,3.20456 l 6.5625,9.58911 c 1.49998,2.20215 2.78904,3.66473 3.86719,4.38782 1.0781,0.72308 2.48434,1.18322 4.21875,1.38042 l 0,0.91208 m -22.57031,-17.18149 c 0.29686,1e-5 0.55467,0.009 0.77343,0.0247 0.21874,2e-5 0.39843,2e-5 0.53907,0 3.03123,2e-5 5.31248,-0.69021 6.84375,-2.07066 1.54685,-1.38042 2.32029,-3.13882 2.32031,-5.27522 -2e-5,-2.08708 -0.62502,-3.77976 -1.875,-5.07806 -1.23439,-1.31465 -2.87502,-1.97201 -4.92188,-1.97205 -0.90626,4e-5 -2.13282,0.15616 -3.67968,0.46837 l 0,13.90297"
         style="font-size:48px;font-style:normal;font-variant:normal;font-weight:normal;font-stretch:normal;text-align:start;line-height:125%;letter-spacing:0px;word-spacing:0px;writing-mode:lr-tb;text-anchor:start;fill:#000000;fill-opacity:1;stroke:none;font-family:Times New Roman;-inkscape-font-specification:Times New Roman"
         id="path2993"
         inkscape:connector-curvature="0" />
      <path
         d="m 232.67481,356.90948 c -2.20313,1.70313 -3.58595,2.68751 -4.14844,2.95313 -0.84375,0.39062 -1.74219,0.58594 -2.69531,0.58594 -1.48438,0 -2.71094,-0.50782 -3.67969,-1.52344 -0.95312,-1.01562 -1.42968,-2.35156 -1.42968,-4.00781 0,-1.04687 0.23437,-1.95312 0.70312,-2.71875 0.64062,-1.06249 1.75,-2.06249 3.32813,-3 1.59374,-0.93749 4.23436,-2.07811 7.92187,-3.42188 l 0,-0.84375 c -1e-5,-2.14061 -0.34376,-3.60935 -1.03125,-4.40625 -0.67188,-0.79685 -1.65626,-1.19529 -2.95312,-1.19531 -0.98439,2e-5 -1.76564,0.26565 -2.34375,0.79687 -0.59376,0.53127 -0.89063,1.14065 -0.89063,1.82813 l 0.0469,1.35937 c -1e-5,0.71877 -0.18751,1.27346 -0.5625,1.66407 -0.35938,0.39064 -0.83595,0.58595 -1.42969,0.58593 -0.57813,2e-5 -1.05469,-0.20311 -1.42969,-0.60937 -0.35938,-0.40623 -0.53906,-0.96092 -0.53906,-1.66406 0,-1.34373 0.6875,-2.57811 2.0625,-3.70313 1.37499,-1.12498 3.30468,-1.68748 5.78906,-1.6875 1.90624,2e-5 3.46874,0.32034 4.6875,0.96094 0.92186,0.4844 1.60155,1.24221 2.03906,2.27344 0.28124,0.67189 0.42186,2.04689 0.42188,4.125 l 0,7.28906 c -2e-5,2.04688 0.039,3.30469 0.11719,3.77344 0.0781,0.45313 0.2031,0.75781 0.375,0.91406 0.18748,0.15625 0.39842,0.23438 0.63281,0.23437 0.24998,1e-5 0.46873,-0.0547 0.65625,-0.16406 0.32811,-0.20312 0.96092,-0.77343 1.89844,-1.71094 l 0,1.3125 c -1.75002,2.34376 -3.4219,3.51563 -5.01563,3.51563 -0.76564,0 -1.37501,-0.26563 -1.82812,-0.79688 -0.45314,-0.53124 -0.68752,-1.43749 -0.70313,-2.71875 m 0,-1.52343 0,-8.17969 c -2.35938,0.93751 -3.88282,1.60157 -4.57031,1.99219 -1.23438,0.68751 -2.11719,1.40626 -2.64844,2.15625 -0.53125,0.75001 -0.79688,1.57032 -0.79687,2.46093 -1e-5,1.12501 0.33593,2.06251 1.00781,2.8125 0.67187,0.73438 1.4453,1.10157 2.32031,1.10157 1.18749,0 2.74999,-0.78125 4.6875,-2.34375"
         style="font-size:48px;font-style:normal;font-variant:normal;font-weight:normal;font-stretch:normal;text-align:start;line-height:125%;letter-spacing:0px;word-spacing:0px;writing-mode:lr-tb;text-anchor:start;fill:#000000;fill-opacity:1;stroke:none;font-family:Times New Roman;-inkscape-font-specification:Times New Roman"
         id="path2995"
         inkscape:connector-curvature="0" />
      <path
         d="m 256.95606,357.58917 c -1.04689,1.09375 -2.07032,1.88282 -3.07031,2.36719 -1.00001,0.46875 -2.07814,0.70312 -3.23438,0.70312 -2.34375,0 -4.39063,-0.97656 -6.14062,-2.92968 -1.75,-1.96875 -2.625,-4.49218 -2.625,-7.57032 0,-3.07811 0.96875,-5.8906 2.90625,-8.4375 1.93749,-2.56247 4.42968,-3.84372 7.47656,-3.84375 1.89061,3e-5 3.45311,0.60159 4.6875,1.80469 l 0,-3.96094 c -10e-6,-2.45309 -0.0625,-3.9609 -0.1875,-4.52343 -0.10939,-0.56247 -0.28908,-0.94529 -0.53906,-1.14844 -0.25002,-0.20309 -0.56252,-0.30466 -0.9375,-0.30469 -0.40626,3e-5 -0.94533,0.12503 -1.61719,0.375 l -0.30469,-0.82031 6.39844,-2.625 1.05469,0 0,24.82031 c -2e-5,2.51563 0.0547,4.05469 0.16406,4.61719 0.12498,0.54688 0.31248,0.92969 0.5625,1.14844 0.26561,0.21875 0.57029,0.32812 0.91406,0.32812 0.42186,0 0.98436,-0.13281 1.6875,-0.39844 l 0.25782,0.82032 -6.375,2.64843 -1.07813,0 0,-3.07031 m 0,-1.64062 0,-11.0625 c -0.0938,-1.06249 -0.37501,-2.03124 -0.84375,-2.90625 -0.46876,-0.87498 -1.09376,-1.53123 -1.875,-1.96875 -0.76564,-0.45311 -1.51564,-0.67967 -2.25,-0.67969 -1.37501,2e-5 -2.60157,0.61721 -3.67969,1.85156 -1.42188,1.62502 -2.13281,4.00002 -2.13281,7.125 0,3.15626 0.6875,5.57813 2.0625,7.26563 1.37499,1.67188 2.90624,2.50781 4.59375,2.50781 1.42186,0 2.79686,-0.71094 4.125,-2.13281"
         style="font-size:48px;font-style:normal;font-variant:normal;font-weight:normal;font-stretch:normal;text-align:start;line-height:125%;letter-spacing:0px;word-spacing:0px;writing-mode:lr-tb;text-anchor:start;fill:#000000;fill-opacity:1;stroke:none;font-family:Times New Roman;-inkscape-font-specification:Times New Roman"
         id="path2997"
         inkscape:connector-curvature="0" />
      <path
         d="m 276.292,337.90167 c 3.24998,2e-5 5.85936,1.2344 7.82812,3.70313 1.67186,2.10939 2.50779,4.53126 2.50782,7.26562 -3e-5,1.92189 -0.46096,3.8672 -1.38282,5.83594 -0.92189,1.96875 -2.19533,3.45313 -3.82031,4.45312 -1.60939,1 -3.40626,1.5 -5.39062,1.5 -3.23439,0 -5.8047,-1.28906 -7.71094,-3.86718 -1.60938,-2.17187 -2.41406,-4.60937 -2.41406,-7.3125 0,-1.96874 0.48437,-3.92186 1.45312,-5.85938 0.98437,-1.9531 2.27343,-3.3906 3.86719,-4.3125 1.59374,-0.93748 3.28124,-1.40623 5.0625,-1.40625 m -0.72656,1.52344 c -0.82814,2e-5 -1.66407,0.25002 -2.50782,0.75 -0.82813,0.48439 -1.5,1.34377 -2.01562,2.57812 -0.51563,1.2344 -0.77344,2.82033 -0.77344,4.75782 0,3.12501 0.61718,5.82032 1.85156,8.08593 1.25,2.26563 2.89062,3.39844 4.92188,3.39844 1.51561,0 2.76561,-0.625 3.75,-1.875 0.98436,-1.24999 1.47654,-3.39843 1.47656,-6.44531 -2e-5,-3.81249 -0.82033,-6.81248 -2.46094,-9 -1.10938,-1.49998 -2.52345,-2.24998 -4.24218,-2.25"
         style="font-size:48px;font-style:normal;font-variant:normal;font-weight:normal;font-stretch:normal;text-align:start;line-height:125%;letter-spacing:0px;word-spacing:0px;writing-mode:lr-tb;text-anchor:start;fill:#000000;fill-opacity:1;stroke:none;font-family:Times New Roman;-inkscape-font-specification:Times New Roman"
         id="path2999"
         inkscape:connector-curvature="0" />
      <path
         d="m 308.02637,351.84698 c -0.57814,2.82814 -1.71095,5.00782 -3.39843,6.53907 -1.68752,1.51562 -3.5547,2.27343 -5.60157,2.27343 -2.4375,0 -4.5625,-1.02343 -6.375,-3.07031 -1.8125,-2.04687 -2.71875,-4.81249 -2.71875,-8.29687 0,-3.37499 1,-6.11717 3,-8.22657 2.01562,-2.10935 4.42968,-3.16404 7.24219,-3.16406 2.10936,2e-5 3.84374,0.56252 5.20313,1.6875 1.35935,1.1094 2.03904,2.26565 2.03906,3.46875 -2e-5,0.59377 -0.19533,1.07814 -0.58594,1.45313 -0.37502,0.35939 -0.90627,0.53907 -1.59375,0.53906 -0.92189,10e-6 -1.6172,-0.29686 -2.08594,-0.89063 -0.26563,-0.3281 -0.44532,-0.9531 -0.53906,-1.875 -0.0781,-0.92185 -0.39064,-1.62498 -0.9375,-2.10937 -0.54689,-0.46873 -1.3047,-0.7031 -2.27344,-0.70313 -1.5625,3e-5 -2.82032,0.57815 -3.77343,1.73438 -1.26563,1.53127 -1.89845,3.5547 -1.89844,6.07031 -10e-6,2.56251 0.62499,4.82814 1.875,6.79688 1.26562,1.95313 2.96874,2.92969 5.10937,2.92968 1.53124,1e-5 2.90624,-0.52343 4.125,-1.57031 0.85936,-0.71874 1.6953,-2.02343 2.50782,-3.91406 l 0.67968,0.32812"
         style="font-size:48px;font-style:normal;font-variant:normal;font-weight:normal;font-stretch:normal;text-align:start;line-height:125%;letter-spacing:0px;word-spacing:0px;writing-mode:lr-tb;text-anchor:start;fill:#000000;fill-opacity:1;stroke:none;font-family:Times New Roman;-inkscape-font-specification:Times New Roman"
         id="path3001"
         inkscape:connector-curvature="0" />
    </g>
    <path
       inkscape:connector-curvature="0"
       id="path4641"
       d="m 96.19843,326.12557 c -0.008,0.008 0.12182,0.0443 0.28832,0.08 0.36753,0.0789 1.80903,0.47821 2.4632,0.68302 6.07517,1.9021 10.65293,4.91474 13.31487,8.76256 1.12783,1.63026 1.84552,3.36508 2.15889,5.21703 0.0723,0.42742 0.0838,0.6254 0.0847,1.46442 8.8e-4,1.03932 -0.0212,1.26691 -0.20135,2.0319 -0.24662,1.04746 -0.62286,1.87481 -1.23676,2.72292 -1.15413,1.59443 -2.96131,2.58705 -5.14038,2.82247 -0.45132,0.0488 -1.63479,0.0486 -2.20694,0 -3.27742,-0.27842 -6.72821,-1.68682 -9.48104,-3.86931 -1.8661,-1.47947 -3.40459,-3.25624 -4.54202,-5.24562 -0.2994,-0.52368 -0.77764,-1.47753 -0.83976,-1.67609 -0.0145,-0.0464 -0.039,-0.0793 -0.0549,-0.0732 -0.0159,0.006 -0.13255,0.14209 -0.25971,0.30318 -0.2996,0.37955 -0.993996,1.09117 -1.390057,1.42438 -0.171405,0.14421 -0.544409,0.43913 -0.829463,0.65556 -0.809347,0.61453 -0.999931,0.8687 -0.999931,1.33515 0,0.57239 0.773636,2.0564 1.625747,3.11648 2.348874,2.92221 6.098174,5.48279 10.053074,6.86681 0.21143,0.074 0.4467,0.15866 0.52285,0.18763 0.30913,0.11761 1.67175,0.49577 2.28359,0.63383 0.99108,0.22363 1.58631,0.32278 2.19093,0.36725 0.30204,0.0222 0.60682,0.0463 0.6773,0.0527 0.31128,0.0283 2.30097,0.0193 2.78241,-0.0125 6.05023,-0.40119 9.86693,-3.54764 10.28533,-8.47653 0.2012,-2.37014 -0.50254,-5.12565 -1.95524,-7.65165 -0.29904,-0.51998 -1.05984,-1.65055 -1.41867,-2.10969 -3.89037,-4.97788 -10.03665,-8.32976 -17.45073,-9.51423 -0.39006,-0.0623 -0.71621,-0.10639 -0.72421,-0.0984 z m -1.90376,7.06129 c -1.41662,0.004 -2.54401,0.10881 -3.54552,0.32721 -1.977325,0.43121 -3.378306,1.0309 -4.685029,2.00445 -0.496029,0.36956 -1.397046,1.28198 -1.729857,1.75159 -0.816223,1.15175 -1.309739,2.38208 -1.530787,3.81781 -0.08091,0.52551 -0.11199,1.81184 -0.0572,2.36368 0.299627,3.01784 1.588595,5.87999 3.897899,8.65615 0.519089,0.62403 1.751018,1.87363 2.40487,2.4392 3.747654,3.24171 8.581164,5.41172 14.184364,6.36797 0.59649,0.10181 1.00497,0.15171 0.87866,0.10755 -0.0202,-0.007 -0.38258,-0.10368 -0.80544,-0.21509 -5.42773,-1.43005 -9.80399,-3.7029 -12.89384,-6.69747 -2.54797,-2.46943 -4.097429,-5.37388 -4.408155,-8.2626 -0.05897,-0.54832 -0.05934,-1.60651 -0.0011,-2.0582 0.128327,-0.99604 0.377531,-1.8442 0.779121,-2.64513 1.106684,-2.20719 3.191071,-3.60091 5.773064,-3.86129 0.48678,-0.0492 1.5819,-0.0492 2.18749,0 3.11241,0.25245 6.39899,1.54036 9.12179,3.57528 1.35173,1.01022 2.65681,2.30285 3.65192,3.61645 0.73723,0.97317 1.22132,1.76315 1.78821,2.91971 0.20455,0.41733 0.38006,0.75719 0.39013,0.75623 0.0101,-8.8e-4 0.13731,-0.15269 0.28259,-0.3375 0.57125,-0.72672 1.05374,-1.18253 2.08108,-1.96669 0.94946,-0.72469 1.09742,-0.91647 1.09147,-1.40836 -0.004,-0.34105 -0.0794,-0.59369 -0.31806,-1.06858 -0.38186,-0.75978 -0.83801,-1.48209 -1.29625,-2.05363 -1.75103,-2.18397 -4.22561,-4.13394 -7.09447,-5.59 -1.16081,-0.58917 -2.11446,-0.995 -3.24005,-1.37863 -0.62822,-0.21411 -1.65227,-0.51822 -2.12343,-0.63039 -1.79042,-0.42629 -2.33609,-0.4954 -4.1576,-0.52514 -0.21465,-0.004 -0.42345,-0.005 -0.62582,-0.004 z m 5.94695,7.97428 c -0.0222,0 -0.30512,0.15385 -0.62924,0.34208 -0.32412,0.18823 -0.79057,0.45595 -1.03655,0.59493 l -0.44733,0.25284 -8.8e-4,1.23562 -8.8e-4,1.23446 0.0823,0.0538 c 0.0453,0.0295 0.51073,0.30072 1.03426,0.60294 0.52354,0.30221 0.9766,0.54952 1.0068,0.54915 0.0302,-2.5e-4 0.51621,-0.26921 1.08002,-0.5972 l 1.0251,-0.59607 0,-1.23791 0,-1.2379 -1.03654,-0.59836 c -0.56985,-0.32892 -1.05438,-0.59835 -1.0766,-0.59835 z m 3.99516,19.88421 c -0.0127,-3.5e-4 -0.0269,0.003 -0.04,0.008 -0.0292,0.0117 -0.0209,0.02 0.0218,0.0218 0.0386,0.002 0.0602,-0.007 0.048,-0.0195 -0.006,-0.006 -0.017,-0.01 -0.0298,-0.0103 z"
       style="fill:#000000;fill-opacity:1" />
  </g>
</svg>
